PathFileType	4	(X/Y/Z)	./resultDataOpenSim/trcMotMarkerGrf/sub09/qtm-01-03.trc
DataRate	CameraRate	NumFrames	NumMarkers	Units	OrigDataRate	OrigDataStartFrame	OrigNumFrames
250.000000	250.000000	8	24	m	250.000000	59	465
Frame#	Time	L.Toe.Tip			R.Toe.Tip			L.Ankle.Lat			R.Ankle.Lat			L.Ankle.Med			R.Ankle.Med			L.Heel			R.Heel			L.Knee.Lat			R.Knee.Lat			L.Knee.Med			R.Knee.Med			L.Thigh.Upper			R.Thigh.Upper			L.ASIS			R.ASIS			V.Sacral			L.Acromium			R.Acromium			C7			L.Elbow			R.Elbow			L.Wrist.Lat			R.Wrist.Lat
		X1	Y1	Z1	X2	Y2	Z2	X3	Y3	Z3	X4	Y4	Z4	X5	Y5	Z5	X6	Y6	Z6	X7	Y7	Z7	X8	Y8	Z8	X9	Y9	Z9	X10	Y10	Z10	X11	Y11	Z11	X12	Y12	Z12	X13	Y13	Z13	X14	Y14	Z14	X15	Y15	Z15	X16	Y16	Z16	X17	Y17	Z17	X18	Y18	Z18	X19	Y19	Z19	X20	Y20	Z20	X21	Y21	Z21	X22	Y22	Z22	X23	Y23	Z23	X24	Y24	Z24

59	0.232	-1.3423006	0.096910602	-0.038221847	-0.64944534	0.039746017	0.092702031	-1.3597314	0.25224027	-0.081904113	-0.79803968	0.054384279	0.12941938	-1.3379866	0.23759133	0.013037191	-0.78787148	0.092772604	0.035689548	-1.4220789	0.29911373	-0.035656749	-0.86439037	0.0302966	0.076257105	-0.98438667	0.4236188	-0.097293481	-0.75792479	0.50730379	0.1879998	-0.97869265	0.41346165	0.0290886	-0.77615353	0.49476848	0.062069432	-0.97223218	0.83221248	-0.11982995	-0.94255027	0.8683583	0.25097915	-0.88324945	0.9211025	-0.069041323	-0.8739296	0.95170113	0.16938623	-1.0470388	0.99137147	0.048347673	-0.87203319	1.3859569	-0.10504333	-0.91377296	1.3945697	0.22216706	-0.95801833	1.44452	0.056565114	-0.99165715	1.0307375	-0.17518455	-1.0586685	1.0612403	0.29614231	-0.79275431	0.8498455	-0.15324112	-0.94089578	0.81699386	0.32945565
60	0.236	-1.3271921	0.098743508	-0.039600559	-0.64951241	0.039796342	0.092626975	-1.3457813	0.25404627	-0.081675567	-0.79814742	0.054372262	0.12933976	-1.3246924	0.23888568	0.013462505	-0.78781155	0.092793462	0.035695898	-1.4087223	0.30033361	-0.035271925	-0.86450641	0.030310248	0.076251362	-0.97088814	0.42502035	-0.096575999	-0.75518866	0.50713922	0.18793505	-0.96458546	0.41449478	0.029967553	-0.77372102	0.4947262	0.062063641	-0.96588131	0.83354143	-0.11963635	-0.93648178	0.87033545	0.25110489	-0.87770068	0.92275386	-0.069063322	-0.86766101	0.95344225	0.16920641	-1.0411654	0.99322795	0.048462449	-0.86624092	1.38762	-0.1051224	-0.90690328	1.3961629	0.22221008	-0.95186172	1.4462861	0.056492303	-0.98583238	1.0326521	-0.17395978	-1.0517005	1.0627324	0.29667942	-0.78909896	0.84984186	-0.15368175	-0.93264508	0.81874753	0.3290932
61	0.24	-1.3118883	0.10031666	-0.04080059	-0.64959568	0.039857791	0.092565329	-1.3316681	0.25553133	-0.081459685	-0.79827315	0.054360001	0.12925192	-1.3114458	0.24000331	0.013919015	-0.7877785	0.092823566	0.03571907	-1.3952296	0.3012247	-0.034952462	-0.8646236	0.030327122	0.076242682	-0.95741169	0.42673586	-0.09598324	-0.75267229	0.50702438	0.1879559	-0.9508725	0.41570292	0.030863986	-0.77138544	0.49467527	0.062140532	-0.95957078	0.83499026	-0.11953843	-0.93054303	0.87233063	0.25120066	-0.87215933	0.92451111	-0.069077824	-0.8614096	0.95522276	0.16904984	-1.0353213	0.99515007	0.048569462	-0.86049885	1.389355	-0.10521412	-0.90006896	1.3978186	0.22225222	-0.94584787	1.4481047	0.05620848	-0.98032115	1.0347018	-0.17296226	-1.0447461	1.0642982	0.29722457	-0.78553164	0.84995094	-0.15412756	-0.92444176	0.82059047	0.32870746
62	0.244	-1.2964367	0.10163404	-0.041765734	-0.64969692	0.039921694	0.092527189	-1.3174282	0.25669786	-0.081253272	-0.79841326	0.05434686	0.12915477	-1.2977344	0.24094805	0.014230891	-0.78773676	0.092870664	0.035756333	-1.3816309	0.30177604	-0.034646675	-0.86473474	0.030344021	0.076228811	-0.94399614	0.42874879	-0.095513492	-0.75035686	0.50694842	0.18804684	-0.93733425	0.41711705	0.031808127	-0.76923644	0.49462903	0.062363912	-0.95326919	0.83656839	-0.11948311	-0.92513761	0.8742815	0.2512063	-0.86656254	0.92637797	-0.069067767	-0.85510538	0.9570262	0.16892368	-1.0295015	0.99712365	0.048707603	-0.85480839	1.3911586	-0.10531307	-0.89324954	1.3995376	0.22228327	-0.93982901	1.4499393	0.05600026	-0.97505275	1.0368207	-0.17215204	-1.0378044	1.0659245	0.29776843	-0.78204199	0.85016202	-0.15457335	-0.91627336	0.82251514	0.32830096
63	0.248	-1.2807583	0.1027218	-0.042497547	-0.64981204	0.039989028	0.092521103	-1.3030894	0.2575581	-0.081054316	-0.79856575	0.054333471	0.12905119	-1.283223	0.24173065	0.014296631	-0.78763657	0.092944851	0.035804102	-1.3679468	0.30197733	-0.034337692	-0.86483465	0.030359386	0.076205144	-0.93067548	0.43096265	-0.095032582	-0.74818705	0.506892	0.18817449	-0.92382739	0.41873049	0.032801902	-0.76731414	0.49459015	0.062726105	-0.94696399	0.83826528	-0.11943276	-0.92079923	0.87611483	0.25105215	-0.86081759	0.92836278	-0.069019696	-0.84867005	0.9588376	0.16884452	-1.0237094	0.99912715	0.048899174	-0.8491614	1.3930254	-0.10541139	-0.88644004	1.401322	0.22230341	-0.93372886	1.451778	0.055994243	-0.96986587	1.038961	-0.17142357	-1.0308815	1.0676063	0.29831268	-0.77860947	0.85047131	-0.1550096	-0.90812603	0.82451761	0.32787967
64	0.252	-1.2646776	0.10363609	-0.043068595	-0.64993746	0.040064195	0.09254806	-1.2886605	0.2581343	-0.080859262	-0.79872833	0.054320415	0.12894355	-1.2681629	0.24233378	0.014228171	-0.78746895	0.093048253	0.035863006	-1.3541928	0.30182116	-0.034042482	-0.86492457	0.030375729	0.076166503	-0.91744123	0.43325598	-0.094382514	-0.74612954	0.50684031	0.18831014	-0.91033942	0.42052848	0.033822534	-0.76553385	0.49455515	0.063116393	-0.94065664	0.8400689	-0.11937902	-0.91759804	0.87780358	0.25073656	-0.854845	0.93048114	-0.068936093	-0.84209249	0.96063723	0.16882186	-1.0179499	1.0011388	0.049154452	-0.84356149	1.3949494	-0.10550602	-0.87965585	1.4031682	0.22232528	-0.92756102	1.4536338	0.056134589	-0.96468099	1.0411226	-0.17071882	-1.0239865	1.0693461	0.29886297	-0.77521643	0.85088702	-0.15542564	-0.90000124	0.82659352	0.32744792
65	0.256	-1.2480796	0.1044194	-0.043547356	-0.65007217	0.040142925	0.092602832	-1.2741326	0.25844508	-0.080662549	-0.79889815	0.05430791	0.12883284	-1.2530616	0.24271452	0.014218618	-0.78733567	0.093155669	0.035943742	-1.3403832	0.30130268	-0.033810086	-0.8650111	0.030398291	0.076108848	-0.90423651	0.43555838	-0.093514501	-0.74419373	0.50678783	0.18844474	-0.89695371	0.42253229	0.03482497	-0.76376102	0.49452597	0.063417401	-0.93435683	0.84197365	-0.11933736	-0.91471023	0.87940446	0.25038492	-0.84868343	0.93273353	-0.068835566	-0.83550382	0.96240129	0.16885052	-1.0122196	1.0031395	0.0494865	-0.83802792	1.3969221	-0.10559682	-0.87291328	1.4050638	0.22236104	-0.92137607	1.4555206	0.056308328	-0.95950346	1.0433292	-0.17001587	-1.0171225	1.0711424	0.29942039	-0.77185339	0.85141932	-0.15581674	-0.89191409	0.82873262	0.32700684
66	0.26	-1.230997	0.10506583	-0.04393857	-0.6502156	0.040213367	0.092679251	-1.2594904	0.25849249	-0.080459816	-0.799072	0.054295949	0.12871926	-1.2381297	0.24285362	0.014341752	-0.78738502	0.093227854	0.036059726	-1.3265238	0.30041961	-0.03369915	-0.86509959	0.030431828	0.076033424	-0.89100135	0.43789402	-0.092495457	-0.74241177	0.50673335	0.18858486	-0.88377511	0.42480114	0.035744096	-0.7619294	0.49451372	0.063590915	-0.92807351	0.84397861	-0.11931521	-0.91095176	0.88101326	0.25017931	-0.84254114	0.93507604	-0.068733553	-0.82921277	0.964106	0.16891627	-1.0065047	1.0051241	0.049896667	-0.83256622	1.3989318	-0.1056797	-0.86622242	1.4069942	0.22241372	-0.91521029	1.4574363	0.056452347	-0.95436363	1.0455924	-0.16932025	-1.0102852	1.072984	0.29998031	-0.76852561	0.85206551	-0.15619307	-0.88387993	0.8309246	0.32655948
